<svg width="20" height="20" viewBox="0 0 20 20" fill="none" xmlns="http://www.w3.org/2000/svg">
<g id="schedule_24px">
<path id="icon/action/schedule_24px" fill-rule="evenodd" clip-rule="evenodd" d="M9.99199 1.66663C5.39199 1.66663 1.66699 5.39996 1.66699 9.99996C1.66699 14.6 5.39199 18.3333 9.99199 18.3333C14.6003 18.3333 18.3337 14.6 18.3337 9.99996C18.3337 5.39996 14.6003 1.66663 9.99199 1.66663ZM10.0005 16.6666C6.31715 16.6666 3.33382 13.6833 3.33382 9.99996C3.33382 6.31662 6.31715 3.33329 10.0005 3.33329C13.6838 3.33329 16.6672 6.31662 16.6672 9.99996C16.6672 13.6833 13.6838 16.6666 10.0005 16.6666ZM9.16699 5.83329H10.417V10.2083L14.167 12.4333L13.542 13.4583L9.16699 10.8333V5.83329Z" fill="#2F80ED"/>
</g>
</svg>
