<svg width="91" height="76" viewBox="0 0 91 76" fill="none" xmlns="http://www.w3.org/2000/svg">
<g filter="url(#filter0_d_57_12)">
<path d="M72 34C72 52.7777 56.7777 68 38 68C19.2223 68 4 52.7777 4 34C4 15.2223 19.2223 0 38 0C56.7777 0 72 15.2223 72 34Z" fill="#4F4F4F"/>
<path d="M87 34C87 52.7777 71.7777 68 53 68C34.2223 68 19 52.7777 19 34C19 15.2223 34.2223 0 53 0C71.7777 0 87 15.2223 87 34Z" fill="#F8B76B"/>
</g>
<path fill-rule="evenodd" clip-rule="evenodd" d="M43.1111 24.6663H63.1111C64.3334 24.6663 65.3334 25.6663 65.3334 26.8885V41.3329C65.3334 42.5551 64.3334 43.5551 63.1111 43.5551H43.1111C41.8889 43.5551 40.8889 42.5551 40.8889 41.3329V26.8885C40.8889 25.6663 41.8889 24.6663 43.1111 24.6663ZM43.1111 26.8885V41.3329H52V26.8885H43.1111ZM63.1111 41.3329H54.2222V26.8885H63.1111V41.3329ZM62 30.7774H55.3334V32.444H62V30.7774ZM55.3334 33.5551H62V35.2218H55.3334V33.5551ZM62 36.3329H55.3334V37.9996H62V36.3329Z" fill="white"/>
<defs>
<filter id="filter0_d_57_12" x="0" y="0" width="91" height="76" filterUnits="userSpaceOnUse" color-interpolation-filters="sRGB">
<feFlood flood-opacity="0" result="BackgroundImageFix"/>
<feColorMatrix in="SourceAlpha" type="matrix" values="0 0 0 0 0 0 0 0 0 0 0 0 0 0 0 0 0 0 127 0" result="hardAlpha"/>
<feOffset dy="4"/>
<feGaussianBlur stdDeviation="2"/>
<feColorMatrix type="matrix" values="0 0 0 0 0 0 0 0 0 0 0 0 0 0 0 0 0 0 0.1 0"/>
<feBlend mode="normal" in2="BackgroundImageFix" result="effect1_dropShadow_57_12"/>
<feBlend mode="normal" in="SourceGraphic" in2="effect1_dropShadow_57_12" result="shape"/>
</filter>
</defs>
</svg>
